<?xml version="1.0" encoding="UTF-8" standalone="no"?><!DOCTYPE svg PUBLIC "-//W3C//DTD SVG 1.1//EN" "http://www.w3.org/Graphics/SVG/1.1/DTD/svg11.dtd"><svg width="100%" height="100%" viewBox="0 0 32 32" version="1.1" xmlns="http://www.w3.org/2000/svg" xmlns:xlink="http://www.w3.org/1999/xlink" xml:space="preserve" style="fill-rule:evenodd;clip-rule:evenodd;stroke-linejoin:round;stroke-miterlimit:1.41421;"><rect id="mastodon" x="0" y="0" width="32" height="32" style="fill:none;"/><clipPath id="_clip1"><rect x="0" y="0" width="32" height="32"/></clipPath><g clip-path="url(#_clip1)"><g id="version-w.2f.-original"><path d="M16.47,0.004c1.936,0.034 3.877,0.146 5.789,0.468c0.729,0.122 1.455,0.276 2.165,0.483c0.531,0.154 1.055,0.338 1.557,0.57c0.26,0.12 0.508,0.269 0.747,0.427c0.444,0.293 0.857,0.631 1.238,1.001c0.992,0.962 1.759,2.14 2.275,3.42c0.366,0.905 0.608,1.858 0.742,2.824c0.063,0.45 0.102,0.903 0.121,1.356c0.025,0.601 0.015,1.205 0.006,1.806c-0.016,1.038 -0.059,2.076 -0.133,3.112c-0.084,1.183 -0.209,2.364 -0.421,3.533l-0.029,0.155l-0.006,0.028c-0.039,0.19 -0.088,0.378 -0.15,0.562c-0.325,0.965 -0.948,1.807 -1.678,2.506c-0.617,0.591 -1.319,1.091 -2.061,1.511c-1.175,0.665 -2.455,1.127 -3.775,1.4l0.22,4.86l-1.172,0.608c-0.109,0.054 -0.218,0.105 -0.329,0.155c-0.812,0.352 -1.664,0.608 -2.529,0.797c-1.253,0.273 -2.537,0.403 -3.819,0.413c-1.722,0.014 -3.443,-0.188 -5.123,-0.561c-0.548,-0.122 -1.096,-0.253 -1.629,-0.43c-0.638,-0.211 -1.256,-0.486 -1.836,-0.825c-0.513,-0.301 -0.996,-0.651 -1.44,-1.046c-0.324,-0.289 -0.627,-0.6 -0.907,-0.931c-0.184,-0.218 -0.359,-0.443 -0.523,-0.676c-1.173,-1.657 -1.822,-3.625 -2.201,-5.604c-0.063,-0.327 -0.118,-0.656 -0.167,-0.986c-0.071,-0.474 -0.129,-0.95 -0.177,-1.426c-0.067,-0.671 -0.114,-1.343 -0.147,-2.016c-0.046,-0.923 -0.066,-1.847 -0.074,-2.771c-0.011,-1.232 -0.001,-2.464 0.005,-3.696c0.003,-0.16 0.007,-0.319 0.012,-0.478c0.019,-0.405 0.05,-0.809 0.102,-1.211c0.098,-0.769 0.263,-1.531 0.505,-2.268c0.276,-0.844 0.653,-1.656 1.132,-2.405c0.482,-0.752 1.066,-1.44 1.738,-2.029c0.415,-0.363 0.864,-0.692 1.345,-0.96c0.378,-0.211 0.785,-0.37 1.193,-0.513c0.678,-0.237 1.377,-0.414 2.081,-0.557c0.926,-0.188 1.864,-0.315 2.805,-0.407c1.357,-0.133 2.72,-0.188 4.084,-0.203c0.155,0 0.309,0.002 0.464,0.004Z" style="fill-rule:nonzero;"/><path d="M28.562,18.786c-0.384,1.975 -3.439,4.136 -6.947,4.555c-1.829,0.219 -3.631,0.419 -5.551,0.331c-3.141,-0.144 -5.62,-0.75 -5.62,-0.75c0,0.306 0.019,0.597 0.057,0.87c0.408,3.1 3.073,3.285 5.598,3.372c2.549,0.087 4.818,-0.628 4.818,-0.628l0.105,2.303c0,0 -1.783,0.958 -4.958,1.134c-1.751,0.096 -3.925,-0.044 -6.458,-0.715c-5.492,-1.453 -6.436,-7.307 -6.581,-13.248c-0.044,-1.763 -0.017,-3.426 -0.017,-4.817c0,-6.074 3.98,-7.855 3.98,-7.855c2.007,-0.921 5.45,-1.309 9.03,-1.338l0.088,0c3.579,0.029 7.025,0.417 9.031,1.338c0,0 3.98,1.781 3.98,7.855c0,0 0.05,4.481 -0.555,7.593" style="fill:#3088d4;fill-rule:nonzero;"/><path d="M24.423,11.664l0,7.355l-2.914,0l0,-7.139c0,-1.505 -0.633,-2.268 -1.9,-2.268c-1.4,0 -2.102,0.906 -2.102,2.697l0,3.908l-2.896,0l0,-3.908c0,-1.791 -0.702,-2.697 -2.102,-2.697c-1.267,0 -1.9,0.763 -1.9,2.268l0,7.139l-2.914,0l0,-7.355c0,-1.503 0.383,-2.698 1.152,-3.581c0.792,-0.884 1.831,-1.337 3.119,-1.337c1.491,0 2.621,0.573 3.367,1.719l0.726,1.217l0.726,-1.217c0.746,-1.146 1.875,-1.719 3.367,-1.719c1.288,0 2.326,0.453 3.119,1.337c0.769,0.883 1.152,2.078 1.152,3.581" style="fill:#fff;fill-rule:nonzero;"/></g></g></svg>